# Blender v2.79 (sub 0) OBJ File: 'back.blend'
# www.blender.org
o Cube_Cube.001
v -0.367578 -0.142800 -0.142800
v -0.367578 0.142800 -0.142800
v 0.632022 -0.142800 -0.142800
v 0.632022 0.142800 -0.142800
v -0.367578 -0.142800 0.142800
v -0.367578 0.142800 0.142800
v 0.632022 -0.142800 0.142800
v 0.632022 0.142800 0.142800
v -0.367578 -0.285600 -0.142800
v -0.367578 0.285600 -0.142800
v -0.367578 0.285600 0.142800
v -0.367578 -0.285600 0.142800
v -0.653178 0.000000 -0.142800
v -0.653178 0.000000 0.142800
vn 0.0000 0.0000 -1.0000
vn 1.0000 0.0000 0.0000
vn -0.0000 0.0000 1.0000
vn 0.0000 -1.0000 0.0000
vn 0.0000 1.0000 0.0000
vn -0.7071 -0.7071 0.0000
vn -0.7071 0.7071 0.0000
s off
f 1//1 2//1 4//1 3//1
f 3//2 4//2 8//2 7//2
f 7//3 8//3 6//3 5//3
f 6//2 2//2 10//2 11//2
f 3//4 7//4 5//4 1//4
f 8//5 4//5 2//5 6//5
f 12//3 11//3 14//3
f 5//3 6//3 11//3 12//3
f 2//3 1//3 9//3 10//3
f 1//2 5//2 12//2 9//2
f 9//6 12//6 14//6 13//6
f 10//1 9//1 13//1
f 11//7 10//7 13//7 14//7
