# Blender v2.79 (sub 0) OBJ File: 'inset.blend'
# www.blender.org
o Cube
v 0.999600 -0.999600 -0.142800
v -0.999600 -0.999600 -0.142800
v -0.999600 0.999600 -0.142800
v 0.999600 0.999600 -0.142800
v 0.999599 -0.999600 0.142800
v -0.999600 -0.999599 0.142800
v -0.999600 0.999600 0.142800
v 0.999600 0.999600 0.142800
v 0.403899 0.605849 0.142800
v 0.403899 0.605849 0.428400
v 0.706824 0.908774 0.142800
v 0.706824 0.908774 0.428400
v 0.605849 0.403899 0.142800
v 0.605849 0.403899 0.428400
v 0.908773 0.706824 0.142800
v 0.908773 0.706824 0.428400
v 0.302924 0.706824 0.142800
v 0.302924 0.706824 0.428400
v 0.706824 0.302925 0.428400
v 0.706824 0.302925 0.142800
v 0.302925 0.302925 0.142800
v 0.302924 0.302925 0.428400
v -0.591424 -0.389474 0.428400
v -0.591424 -0.389474 0.142800
v -0.894348 -0.692399 0.428400
v -0.894348 -0.692399 0.142800
v -0.389474 -0.591424 0.428400
v -0.389474 -0.591424 0.142800
v -0.692399 -0.894349 0.428400
v -0.692399 -0.894349 0.142800
v -0.692399 -0.288500 0.428400
v -0.692399 -0.288500 0.142800
v -0.288499 -0.692399 0.142800
v -0.288499 -0.692399 0.428400
v -0.288500 -0.288500 0.428400
v -0.288500 -0.288500 0.142800
v -0.591425 0.403899 0.142800
v -0.591425 0.403899 0.428400
v -0.894349 0.706824 0.142800
v -0.894349 0.706824 0.428400
v -0.389475 0.605849 0.142800
v -0.389475 0.605849 0.428400
v -0.692399 0.908773 0.142800
v -0.692399 0.908773 0.428400
v -0.692399 0.302924 0.142800
v -0.692399 0.302924 0.428400
v -0.288500 0.706824 0.428400
v -0.288500 0.706824 0.142800
v -0.288500 0.302925 0.142800
v -0.288500 0.302925 0.428400
v 0.403899 -0.591424 0.428400
v 0.403899 -0.591424 0.142800
v 0.706824 -0.894348 0.428400
v 0.706824 -0.894348 0.142800
v 0.605849 -0.389474 0.428400
v 0.605849 -0.389474 0.142800
v 0.908773 -0.692399 0.428400
v 0.908773 -0.692399 0.142800
v 0.302924 -0.692399 0.428400
v 0.302924 -0.692399 0.142800
v 0.706823 -0.288499 0.142800
v 0.706823 -0.288499 0.428400
v 0.302924 -0.288499 0.428400
v 0.302924 -0.288499 0.142800
vn 0.0000 -0.0000 -1.0000
vn -0.0000 0.0000 1.0000
vn -0.0000 -1.0000 0.0000
vn -1.0000 0.0000 -0.0000
vn 0.0000 1.0000 -0.0000
vn 1.0000 -0.0000 0.0000
vn -0.7071 0.7071 0.0000
vn 0.7071 0.7071 0.0000
vn 0.7071 -0.7071 0.0000
vn -0.6914 -0.2094 -0.6914
vn -0.7071 -0.7071 0.0000
vn -0.2425 -0.0000 -0.9701
vn 0.0000 -0.2899 0.9571
vn 0.0000 0.0605 0.9982
vn -0.6914 0.2094 -0.6914
s off
f 1//1 2//1 3//1 4//1
f 5//2 8//2 7//2 6//2
f 1//3 5//3 6//3 2//3
f 2//4 6//4 7//4 3//4
f 3//5 7//5 8//5 4//5
f 5//6 1//6 4//6 8//6
f 9//7 10//7 12//7 11//7
f 11//8 12//8 16//8 15//8
f 15//9 16//9 14//9 13//9
f 14//10 10//10 18//10 19//10
f 11//1 15//1 13//1 9//1
f 16//2 12//2 10//2 14//2
f 20//3 19//3 22//3 21//3
f 13//8 14//8 19//8 20//8
f 10//8 9//8 17//8 18//8
f 9//4 13//4 20//4 17//4
f 17//1 20//1 21//1
f 18//4 17//4 21//4 22//4
f 19//2 18//2 22//2
f 23//7 24//7 26//7 25//7
f 25//11 26//11 30//11 29//11
f 29//9 30//9 28//9 27//9
f 28//12 24//12 32//12 33//12
f 25//2 29//2 27//2 23//2
f 30//1 26//1 24//1 28//1
f 34//6 33//6 36//6 35//6
f 27//11 28//11 33//11 34//11
f 24//11 23//11 31//11 32//11
f 23//13 27//13 34//13 31//13
f 31//2 34//2 35//2
f 32//5 31//5 35//5 36//5
f 33//1 32//1 36//1
f 37//11 38//11 40//11 39//11
f 39//7 40//7 44//7 43//7
f 43//8 44//8 42//8 41//8
f 42//14 38//14 46//14 47//14
f 39//1 43//1 41//1 37//1
f 44//2 40//2 38//2 42//2
f 48//6 47//6 50//6 49//6
f 41//7 42//7 47//7 48//7
f 38//7 37//7 45//7 46//7
f 37//1 41//1 48//1 45//1
f 45//1 48//1 49//1
f 46//3 45//3 49//3 50//3
f 47//2 46//2 50//2
f 51//11 52//11 54//11 53//11
f 53//9 54//9 58//9 57//9
f 57//8 58//8 56//8 55//8
f 56//2 52//2 60//2 61//2
f 53//2 57//2 55//2 51//2
f 58//1 54//1 52//1 56//1
f 62//5 61//5 64//5 63//5
f 55//9 56//9 61//9 62//9
f 52//9 51//9 59//9 60//9
f 51//15 55//15 62//15 59//15
f 59//2 62//2 63//2
f 60//4 59//4 63//4 64//4
f 61//1 60//1 64//1
