# Blender v2.79 (sub 0) OBJ File: 'translate.blend'
# www.blender.org
mtllib translate.mtl
o Cube_Cube.004
v -0.142800 -0.142800 0.142800
v -0.142800 0.142800 0.142800
v -0.142800 -0.142800 -0.142800
v -0.142800 0.142800 -0.142800
v 0.142800 -0.142800 0.142800
v 0.142800 0.142800 0.142800
v 0.142800 -0.142800 -0.142800
v 0.142800 0.142800 -0.142800
v -0.142800 0.714000 0.142800
v -0.142800 0.714000 -0.142800
v 0.142800 0.714000 -0.142800
v 0.142800 0.714000 0.142800
v -0.714000 -0.142800 -0.142800
v -0.714000 -0.142800 0.142800
v -0.714000 0.142800 0.142800
v -0.714000 0.142800 -0.142800
v -0.142800 -0.714000 -0.142800
v -0.142800 -0.714000 0.142800
v 0.142800 -0.714000 -0.142800
v 0.142800 -0.714000 0.142800
v 0.714000 0.142800 -0.142800
v 0.714000 -0.142800 -0.142800
v 0.714000 -0.142800 0.142800
v 0.714000 0.142800 0.142800
v -0.285600 0.714000 0.142800
v -0.285600 0.714000 -0.142800
v 0.285600 0.714000 -0.142800
v 0.285600 0.714000 0.142800
v 0.000000 0.999600 0.142800
v 0.000000 0.999600 -0.142800
v 0.714000 0.285600 -0.142800
v 0.714000 -0.285600 -0.142800
v 0.714000 -0.285600 0.142800
v 0.714000 0.285600 0.142800
v 0.999600 0.000000 -0.142800
v 0.999600 0.000000 0.142800
v -0.285600 -0.714000 -0.142800
v -0.285600 -0.714000 0.142800
v 0.285600 -0.714000 -0.142800
v 0.285600 -0.714000 0.142800
v 0.000000 -0.999600 -0.142800
v 0.000000 -0.999600 0.142800
v -0.714000 -0.285600 -0.142800
v -0.714000 -0.285600 0.142800
v -0.714000 0.285600 0.142800
v -0.714000 0.285600 -0.142800
v -0.999600 0.000000 -0.142800
v -0.999600 0.000000 0.142800
vn 0.0000 0.0000 -1.0000
vn 0.0000 1.0000 0.0000
vn 0.0000 0.0000 1.0000
vn 1.0000 0.0000 0.0000
vn 0.0000 -1.0000 0.0000
vn -1.0000 0.0000 0.0000
vn 0.7071 0.7071 0.0000
vn -0.7071 0.7071 0.0000
vn 0.7071 -0.7071 0.0000
vn -0.7071 -0.7071 0.0000
usemtl None
s off
f 4//1 3//1 13//1 16//1
f 3//1 4//1 8//1 7//1
f 8//2 6//2 24//2 21//2
f 5//3 6//3 2//3 1//3
f 5//3 1//3 18//3 20//3
f 6//4 8//4 11//4 12//4
f 12//5 11//5 27//5 28//5
f 4//6 2//6 9//6 10//6
f 2//3 6//3 12//3 9//3
f 8//1 4//1 10//1 11//1
f 16//3 13//3 43//3 46//3
f 1//3 2//3 15//3 14//3
f 2//2 4//2 16//2 15//2
f 3//5 1//5 14//5 13//5
f 19//2 20//2 40//2 39//2
f 3//1 7//1 19//1 17//1
f 1//6 3//6 17//6 18//6
f 7//4 5//4 20//4 19//4
f 22//3 21//3 31//3 32//3
f 7//1 8//1 21//1 22//1
f 6//3 5//3 23//3 24//3
f 5//5 7//5 22//5 23//5
f 25//3 28//3 29//3
f 10//5 9//5 25//5 26//5
f 9//3 12//3 28//3 25//3
f 11//3 10//3 26//3 27//3
f 27//1 26//1 30//1
f 28//7 27//7 30//7 29//7
f 26//8 25//8 29//8 30//8
f 34//3 33//3 36//3
f 24//3 23//3 33//3 34//3
f 23//6 22//6 32//6 33//6
f 21//6 24//6 34//6 31//6
f 33//9 32//9 35//9 36//9
f 31//7 34//7 36//7 35//7
f 32//1 31//1 35//1
f 39//9 40//9 42//9 41//9
f 18//2 17//2 37//2 38//2
f 20//3 18//3 38//3 40//3
f 17//3 19//3 39//3 37//3
f 38//10 37//10 41//10 42//10
f 40//3 38//3 42//3
f 37//1 39//1 41//1
f 45//8 46//8 47//8 48//8
f 14//3 15//3 45//3 44//3
f 15//4 16//4 46//4 45//4
f 13//4 14//4 44//4 43//4
f 43//10 44//10 48//10 47//10
f 46//1 43//1 47//1
f 44//3 45//3 48//3
