# Blender v2.79 (sub 0) OBJ File: 'user_tools.blend'
# www.blender.org
o Circle
v -0.021668 0.492891 0.013775
v -0.042503 0.486570 0.013775
v -0.061705 0.476307 0.013775
v -0.078536 0.462494 0.013775
v -0.092349 0.445663 0.013775
v -0.102612 0.426462 0.013775
v -0.108933 0.405626 0.013775
v -0.111067 0.383958 0.013775
v -0.108933 0.362290 0.013775
v -0.102612 0.341455 0.013775
v -0.092349 0.322253 0.013775
v -0.078536 0.305422 0.013775
v -0.061705 0.291610 0.013775
v 0.340681 0.186116 0.013769
v 0.347587 0.192525 0.013769
v 0.078536 0.462494 0.013775
v 0.061705 0.476307 0.013775
v 0.042503 0.486570 0.013775
v 0.021668 0.492891 0.013775
v 0.301413 0.258314 0.013769
v 0.290579 0.257501 0.013775
v 0.312247 0.174542 0.013775
v 0.322664 0.176949 0.013775
v 0.332265 0.180857 0.013769
v 0.352719 0.199837 0.013775
v 0.355879 0.207771 0.013775
v 0.356946 0.216022 0.013775
v 0.355879 0.224273 0.013775
v 0.352719 0.232206 0.013775
v 0.347587 0.239518 0.013775
v 0.340680 0.245927 0.013775
v 0.332265 0.251187 0.013775
v 0.322664 0.255095 0.013775
v 0.312246 0.257501 0.013775
v 0.124865 -0.466409 0.013775
v 0.129997 -0.476010 0.013775
v 0.136903 -0.484426 0.013775
v 0.145319 -0.491332 0.013775
v 0.154919 -0.496464 0.013775
v 0.165337 -0.499624 0.013775
v 0.176171 -0.500691 0.013775
v 0.187005 -0.499624 0.013775
v 0.197423 -0.496464 0.013775
v 0.207024 -0.491332 0.013775
v 0.215439 -0.484426 0.013775
v 0.222345 -0.476010 0.013775
v 0.227477 -0.466409 0.013775
v 0.230637 -0.455992 0.013775
v 0.231704 -0.445158 0.013775
v 0.230637 -0.434324 0.013775
v 0.227477 -0.423906 0.013775
v 0.061705 0.226161 0.013775
v 0.061705 0.143201 0.013775
v 0.061705 0.020041 0.013775
v -0.000000 0.495025 0.013775
v 0.092349 0.445663 0.013775
v 0.102612 0.426462 0.013775
v 0.108933 0.405626 0.013775
v 0.111067 0.383958 0.013775
v 0.108933 0.362290 0.013775
v 0.102612 0.341455 0.013775
v 0.092349 0.322253 0.013775
v 0.078536 0.305422 0.013775
v 0.061705 0.291610 0.013775
v -0.340681 0.186116 0.013769
v -0.347587 0.192525 0.013769
v -0.301413 0.258314 0.013769
v -0.290579 0.257501 0.013775
v -0.312247 0.174542 0.013775
v -0.322664 0.176949 0.013775
v -0.332265 0.180857 0.013769
v -0.352719 0.199837 0.013775
v -0.355879 0.207771 0.013775
v -0.356946 0.216022 0.013775
v -0.355879 0.224273 0.013775
v -0.352719 0.232206 0.013775
v -0.347587 0.239518 0.013775
v -0.340680 0.245927 0.013775
v -0.332265 0.251187 0.013775
v -0.322664 0.255095 0.013775
v -0.312246 0.257501 0.013775
v -0.124865 -0.466409 0.013775
v -0.129997 -0.476010 0.013775
v -0.136903 -0.484426 0.013775
v -0.145319 -0.491332 0.013775
v -0.154920 -0.496464 0.013775
v -0.165337 -0.499624 0.013775
v -0.176171 -0.500691 0.013775
v -0.187005 -0.499624 0.013775
v -0.197423 -0.496464 0.013775
v -0.207024 -0.491332 0.013775
v -0.215439 -0.484426 0.013775
v -0.222345 -0.476010 0.013775
v -0.227477 -0.466409 0.013775
v -0.230637 -0.455992 0.013775
v -0.231704 -0.445158 0.013775
v -0.230637 -0.434324 0.013775
v -0.227477 -0.423906 0.013775
v -0.061705 0.226161 0.013775
v -0.061705 0.143201 0.013775
v -0.061705 0.020041 0.013775
v -0.000000 -0.113716 0.013775
v 0.061705 0.291610 -0.130612
v 0.078536 0.305422 -0.130612
v 0.092349 0.322253 -0.130608
v 0.102612 0.341455 -0.130612
v 0.108933 0.362290 -0.130612
v 0.111067 0.383958 -0.130608
v 0.108932 0.405626 -0.130608
v 0.102612 0.426462 -0.130612
v 0.092348 0.445664 -0.130608
v 0.078536 0.462494 -0.130612
v 0.061705 0.476307 -0.130612
v 0.042503 0.486570 -0.130612
v 0.021668 0.492891 -0.130612
v 0.301413 0.258314 -0.130617
v 0.290579 0.257501 -0.130608
v 0.312247 0.174542 -0.130612
v 0.322664 0.176949 -0.130612
v 0.332265 0.180857 -0.130617
v 0.340681 0.186116 -0.130612
v 0.347587 0.192525 -0.130612
v 0.352719 0.199837 -0.130612
v 0.355879 0.207771 -0.130612
v 0.356946 0.216022 -0.130608
v 0.355879 0.224273 -0.130612
v 0.352719 0.232206 -0.130612
v 0.347587 0.239518 -0.130612
v 0.340680 0.245927 -0.130608
v 0.332265 0.251187 -0.130612
v 0.322664 0.255095 -0.130608
v 0.312246 0.257501 -0.130612
v 0.124865 -0.466409 -0.130612
v 0.129997 -0.476010 -0.130612
v 0.136903 -0.484426 -0.130612
v 0.145319 -0.491332 -0.130612
v 0.154919 -0.496464 -0.130612
v 0.165337 -0.499624 -0.130612
v 0.176171 -0.500691 -0.130612
v 0.187005 -0.499624 -0.130612
v 0.197423 -0.496464 -0.130612
v 0.207024 -0.491332 -0.130612
v 0.215439 -0.484426 -0.130612
v 0.222345 -0.476010 -0.130612
v 0.227477 -0.466409 -0.130612
v 0.230637 -0.455992 -0.130612
v 0.231704 -0.445158 -0.130612
v 0.230637 -0.434324 -0.130608
v 0.227477 -0.423906 -0.130612
v 0.061705 0.226161 -0.130612
v 0.061705 0.143201 -0.130612
v 0.061705 0.020041 -0.130612
v -0.000000 0.495025 -0.130612
v -0.061705 0.291610 -0.130612
v -0.078536 0.305422 -0.130612
v -0.092349 0.322253 -0.130608
v -0.102612 0.341455 -0.130612
v -0.108933 0.362290 -0.130612
v -0.111067 0.383958 -0.130608
v -0.108933 0.405626 -0.130608
v -0.102612 0.426462 -0.130612
v -0.092348 0.445664 -0.130608
v -0.078536 0.462494 -0.130612
v -0.061705 0.476307 -0.130612
v -0.042503 0.486570 -0.130612
v -0.021668 0.492891 -0.130612
v -0.301413 0.258314 -0.130617
v -0.290579 0.257501 -0.130608
v -0.312247 0.174542 -0.130612
v -0.322664 0.176949 -0.130612
v -0.332265 0.180857 -0.130617
v -0.340681 0.186116 -0.130612
v -0.347587 0.192525 -0.130612
v -0.352719 0.199837 -0.130612
v -0.355879 0.207771 -0.130612
v -0.356946 0.216022 -0.130608
v -0.355879 0.224273 -0.130612
v -0.352719 0.232206 -0.130612
v -0.347587 0.239518 -0.130612
v -0.340680 0.245927 -0.130608
v -0.332265 0.251187 -0.130612
v -0.322664 0.255095 -0.130608
v -0.312246 0.257501 -0.130612
v -0.124865 -0.466409 -0.130612
v -0.129997 -0.476010 -0.130612
v -0.136903 -0.484426 -0.130612
v -0.145319 -0.491332 -0.130612
v -0.154920 -0.496464 -0.130612
v -0.165337 -0.499624 -0.130612
v -0.176171 -0.500691 -0.130612
v -0.187005 -0.499624 -0.130612
v -0.197423 -0.496464 -0.130612
v -0.207024 -0.491332 -0.130612
v -0.215439 -0.484426 -0.130612
v -0.222345 -0.476010 -0.130612
v -0.227477 -0.466409 -0.130612
v -0.230637 -0.455992 -0.130612
v -0.231704 -0.445158 -0.130612
v -0.230637 -0.434324 -0.130608
v -0.227477 -0.423906 -0.130612
v -0.061705 0.226161 -0.130612
v -0.061705 0.143201 -0.130612
v -0.061705 0.020041 -0.130612
v -0.000000 -0.113716 -0.130612
vn -0.0000 -0.0000 1.0000
vn 0.0000 0.0000 -1.0000
vn 0.6344 -0.7730 -0.0000
vn 0.7730 -0.6344 0.0000
vn 0.8819 -0.4714 0.0000
vn 0.9569 -0.2903 0.0000
vn 0.9952 -0.0980 -0.0000
vn 0.9952 0.0980 0.0000
vn 0.9569 0.2903 -0.0000
vn 0.8819 0.4714 0.0000
vn 0.7730 0.6344 0.0000
vn 0.6344 0.7730 0.0000
vn 0.4714 0.8819 0.0000
vn 0.2903 0.9569 0.0000
vn 0.0980 0.9952 0.0000
vn -0.0748 0.9972 0.0000
vn 1.0000 0.0000 0.0000
vn 0.2251 -0.9743 0.0000
vn 0.3770 -0.9262 0.0000
vn 0.5300 -0.8480 0.0000
vn 0.6802 -0.7330 0.0000
vn 0.8185 -0.5745 0.0000
vn 0.9290 -0.3700 0.0000
vn 0.9917 -0.1283 0.0000
vn 0.9917 0.1283 0.0000
vn 0.9290 0.3700 0.0000
vn 0.8185 0.5745 0.0000
vn 0.6802 0.7330 0.0000
vn 0.5300 0.8480 0.0000
vn 0.3770 0.9262 0.0000
vn 0.2251 0.9743 0.0000
vn 0.0748 0.9972 0.0000
vn -0.8819 -0.4714 0.0000
vn -0.7730 -0.6344 0.0000
vn -0.6344 -0.7730 0.0000
vn -0.4714 -0.8819 0.0000
vn -0.2903 -0.9569 0.0000
vn -0.0980 -0.9952 0.0000
vn 0.0980 -0.9952 0.0000
vn 0.2903 -0.9569 0.0000
vn 0.4714 -0.8819 0.0000
vn -0.1357 0.9908 0.0000
vn 0.1241 -0.9923 0.0000
vn -0.9427 -0.3337 0.0000
vn 0.9368 0.3498 0.0000
vn -0.9569 -0.2903 0.0000
vn -0.9952 -0.0980 -0.0000
vn -0.9952 0.0980 0.0000
vn -0.9569 0.2903 -0.0000
vn -0.8819 0.4714 0.0000
vn -0.7730 0.6344 0.0000
vn -0.6344 0.7730 0.0000
vn -0.4714 0.8819 -0.0000
vn -0.2903 0.9569 -0.0000
vn -0.0980 0.9952 0.0000
vn -1.0000 0.0000 0.0000
vn -0.2251 -0.9743 0.0000
vn -0.3770 -0.9262 0.0000
vn -0.5300 -0.8480 0.0000
vn -0.6802 -0.7330 0.0000
vn -0.8185 -0.5745 0.0000
vn -0.9290 -0.3700 0.0000
vn -0.9917 -0.1283 0.0000
vn -0.9917 0.1283 0.0000
vn -0.9290 0.3700 0.0000
vn -0.8185 0.5745 0.0000
vn -0.6802 0.7330 0.0000
vn -0.5300 0.8480 0.0000
vn -0.3770 0.9262 0.0000
vn -0.2251 0.9743 0.0000
vn 0.1357 0.9908 0.0000
vn -0.1241 -0.9923 0.0000
vn 0.9427 -0.3337 0.0000
vn -0.9368 0.3498 0.0000
s off
f 34//1 20//1 21//1 52//1 64//1 63//1 62//1 61//1 60//1 59//1 58//1 57//1 56//1 16//1 17//1 18//1 19//1 55//1 1//1 2//1 3//1 4//1 5//1 6//1 7//1 8//1 9//1 10//1 11//1 12//1 13//1 99//1 68//1 67//1 81//1 80//1 79//1 78//1 77//1 76//1 75//1 74//1 73//1 72//1 66//1 65//1 71//1 70//1 69//1 100//1 101//1 98//1 97//1 96//1 95//1 94//1 93//1 92//1 91//1 90//1 89//1 88//1 87//1 86//1 85//1 84//1 83//1 82//1 102//1 35//1 36//1 37//1 38//1 39//1 40//1 41//1 42//1 43//1 44//1 45//1 46//1 47//1 48//1 49//1 50//1 51//1 54//1 53//1 22//1 23//1 24//1 14//1 15//1 25//1 26//1 27//1 28//1 29//1 30//1 31//1 32//1 33//1
f 132//2 131//2 130//2 129//2 128//2 127//2 126//2 125//2 124//2 123//2 122//2 121//2 120//2 119//2 118//2 151//2 152//2 149//2 148//2 147//2 146//2 145//2 144//2 143//2 142//2 141//2 140//2 139//2 138//2 137//2 136//2 135//2 134//2 133//2 204//2 184//2 185//2 186//2 187//2 188//2 189//2 190//2 191//2 192//2 193//2 194//2 195//2 196//2 197//2 198//2 199//2 200//2 203//2 202//2 169//2 170//2 171//2 172//2 173//2 174//2 175//2 176//2 177//2 178//2 179//2 180//2 181//2 182//2 183//2 167//2 168//2 201//2 154//2 155//2 156//2 157//2 158//2 159//2 160//2 161//2 162//2 163//2 164//2 165//2 166//2 153//2 115//2 114//2 113//2 112//2 111//2 110//2 109//2 108//2 107//2 106//2 105//2 104//2 103//2 150//2 117//2 116//2
f 63//3 64//3 103//3 104//3
f 62//4 63//4 104//4 105//4
f 61//5 62//5 105//5 106//5
f 60//6 61//6 106//6 107//6
f 59//7 60//7 107//7 108//7
f 58//8 59//8 108//8 109//8
f 57//9 58//9 109//9 110//9
f 56//10 57//10 110//10 111//10
f 16//11 56//11 111//11 112//11
f 17//12 16//12 112//12 113//12
f 18//13 17//13 113//13 114//13
f 19//14 18//14 114//14 115//14
f 55//15 19//15 115//15 153//15
f 21//16 20//16 116//16 117//16
f 64//17 52//17 150//17 103//17
f 23//18 22//18 118//18 119//18
f 24//19 23//19 119//19 120//19
f 14//20 24//20 120//20 121//20
f 15//21 14//21 121//21 122//21
f 25//22 15//22 122//22 123//22
f 26//23 25//23 123//23 124//23
f 27//24 26//24 124//24 125//24
f 28//25 27//25 125//25 126//25
f 29//26 28//26 126//26 127//26
f 30//27 29//27 127//27 128//27
f 31//28 30//28 128//28 129//28
f 32//29 31//29 129//29 130//29
f 33//30 32//30 130//30 131//30
f 34//31 33//31 131//31 132//31
f 20//32 34//32 132//32 116//32
f 36//33 35//33 133//33 134//33
f 37//34 36//34 134//34 135//34
f 38//35 37//35 135//35 136//35
f 39//36 38//36 136//36 137//36
f 40//37 39//37 137//37 138//37
f 41//38 40//38 138//38 139//38
f 42//39 41//39 139//39 140//39
f 43//40 42//40 140//40 141//40
f 44//41 43//41 141//41 142//41
f 45//3 44//3 142//3 143//3
f 46//4 45//4 143//4 144//4
f 47//5 46//5 144//5 145//5
f 48//6 47//6 145//6 146//6
f 49//7 48//7 146//7 147//7
f 50//8 49//8 147//8 148//8
f 51//9 50//9 148//9 149//9
f 52//42 21//42 117//42 150//42
f 22//43 53//43 151//43 118//43
f 53//17 54//17 152//17 151//17
f 35//44 102//44 204//44 133//44
f 54//45 51//45 149//45 152//45
f 13//35 12//35 155//35 154//35
f 12//34 11//34 156//34 155//34
f 11//33 10//33 157//33 156//33
f 10//46 9//46 158//46 157//46
f 9//47 8//47 159//47 158//47
f 8//48 7//48 160//48 159//48
f 7//49 6//49 161//49 160//49
f 6//50 5//50 162//50 161//50
f 5//51 4//51 163//51 162//51
f 4//52 3//52 164//52 163//52
f 3//53 2//53 165//53 164//53
f 2//54 1//54 166//54 165//54
f 1//55 55//55 153//55 166//55
f 67//32 68//32 168//32 167//32
f 99//56 13//56 154//56 201//56
f 69//57 70//57 170//57 169//57
f 70//58 71//58 171//58 170//58
f 71//59 65//59 172//59 171//59
f 65//60 66//60 173//60 172//60
f 66//61 72//61 174//61 173//61
f 72//62 73//62 175//62 174//62
f 73//63 74//63 176//63 175//63
f 74//64 75//64 177//64 176//64
f 75//65 76//65 178//65 177//65
f 76//66 77//66 179//66 178//66
f 77//67 78//67 180//67 179//67
f 78//68 79//68 181//68 180//68
f 79//69 80//69 182//69 181//69
f 80//70 81//70 183//70 182//70
f 81//16 67//16 167//16 183//16
f 82//5 83//5 185//5 184//5
f 83//4 84//4 186//4 185//4
f 84//3 85//3 187//3 186//3
f 85//41 86//41 188//41 187//41
f 86//40 87//40 189//40 188//40
f 87//39 88//39 190//39 189//39
f 88//38 89//38 191//38 190//38
f 89//37 90//37 192//37 191//37
f 90//36 91//36 193//36 192//36
f 91//35 92//35 194//35 193//35
f 92//34 93//34 195//34 194//34
f 93//33 94//33 196//33 195//33
f 94//46 95//46 197//46 196//46
f 95//47 96//47 198//47 197//47
f 96//48 97//48 199//48 198//48
f 97//49 98//49 200//49 199//49
f 68//71 99//71 201//71 168//71
f 100//72 69//72 169//72 202//72
f 101//56 100//56 202//56 203//56
f 102//73 82//73 184//73 204//73
f 98//74 101//74 203//74 200//74
